<svg xmlns="http://www.w3.org/2000/svg" width="209" height="38" viewBox="0 0 209 38">
    <g fill="none" fill-rule="evenodd">
        <path fill="#4A4A4A" d="M124.75 31h-2.14v-2.563h2.14V31zm4.625-8.313c0-2.697.576-4.856 1.727-6.476 1.15-1.62 2.752-2.43 4.804-2.43 1.198 0 2.235.263 3.11.79.875.525 1.599 1.268 2.172 2.226l.218-2.703h1.578V30.78c0 2.177-.601 3.896-1.804 5.157-1.203 1.26-2.878 1.89-5.024 1.89-.812 0-1.677-.099-2.594-.297-.916-.198-1.718-.468-2.406-.812l.485-1.578c.666.333 1.37.586 2.109.757.74.172 1.531.258 2.375.258 1.646 0 2.888-.474 3.727-1.422.838-.948 1.257-2.265 1.257-3.953v-2.125a5.932 5.932 0 0 1-2.172 1.977c-.875.463-1.895.695-3.062.695-2.031 0-3.622-.755-4.773-2.265-1.151-1.51-1.727-3.527-1.727-6.047v-.328zm1.875.329c0 2.03.417 3.653 1.25 4.867.833 1.213 2.073 1.82 3.719 1.82 1.208 0 2.216-.276 3.023-.828.807-.552 1.43-1.312 1.867-2.281V18.75c-.406-.98-1.002-1.781-1.789-2.406-.786-.625-1.81-.938-3.07-.938-1.646 0-2.89.677-3.734 2.031-.844 1.355-1.266 3.105-1.266 5.25v.329zm15.64-.72c0-2.489.683-4.53 2.048-6.124 1.364-1.594 3.171-2.39 5.421-2.39 2.26 0 4.073.796 5.438 2.39 1.364 1.594 2.047 3.635 2.047 6.125v.515c0 2.5-.68 4.545-2.04 6.133-1.359 1.589-3.163 2.383-5.413 2.383-2.271 0-4.089-.794-5.453-2.383-1.365-1.588-2.047-3.632-2.047-6.133v-.515zm1.876.517c0 1.958.494 3.604 1.484 4.937.99 1.333 2.37 2 4.14 2 1.74 0 3.107-.667 4.102-2 .995-1.333 1.492-2.98 1.492-4.938v-.515c0-1.927-.5-3.563-1.5-4.906-1-1.344-2.375-2.016-4.125-2.016s-3.12.672-4.109 2.016c-.99 1.343-1.484 2.979-1.484 4.906v.515zm21.797 3.953l.546 1.984h.094l.594-1.984 4.594-12.672h1.937L171.906 31h-1.5l-6.437-16.906h1.937l4.656 12.672zM183.688 31h-2.141v-2.563h2.14V31zm7.453 0h-1.86V6.625h1.86V31zm9.984-4.234l.547 1.984h.094l.593-1.984 4.594-12.672h1.938L202.469 31h-1.5l-6.438-16.906h1.938l4.656 12.672z"/>
        <path fill="#4A90E2" d="M54.438 22.688c0-2.667.575-4.818 1.726-6.454 1.151-1.635 2.773-2.453 4.867-2.453.844 0 1.604.183 2.282.547.677.365 1.27.886 1.78 1.563V6.625h4.579V31H65.75l-.375-2.063c-.531.782-1.159 1.375-1.883 1.782-.724.406-1.554.61-2.492.61-2.073 0-3.685-.761-4.836-2.282-1.151-1.521-1.727-3.531-1.727-6.031v-.328zm4.546.328c0 1.479.25 2.643.75 3.492.5.849 1.313 1.273 2.438 1.273.656 0 1.229-.133 1.719-.398.49-.266.89-.654 1.203-1.164v-7.203a3.511 3.511 0 0 0-1.196-1.243c-.484-.296-1.049-.445-1.695-.445-1.114 0-1.93.495-2.445 1.485-.516.99-.774 2.28-.774 3.875v.328zM83.125 31a9.596 9.596 0 0 1-.43-1.219 8.478 8.478 0 0 1-.257-1.312 6.288 6.288 0 0 1-1.852 2.047c-.766.541-1.68.812-2.742.812-1.771 0-3.136-.456-4.094-1.367-.958-.912-1.438-2.154-1.438-3.727 0-1.656.639-2.94 1.915-3.851 1.276-.912 3.138-1.367 5.585-1.367h2.547v-1.344c0-.813-.213-1.443-.64-1.89-.427-.449-1.058-.673-1.89-.673-.74 0-1.31.18-1.712.54-.4.359-.601.856-.601 1.492l-4.407-.016-.015-.094c-.073-1.427.547-2.659 1.86-3.695 1.312-1.037 3.036-1.555 5.171-1.555 2.02 0 3.661.513 4.922 1.54 1.26 1.025 1.89 2.486 1.89 4.382v6.985c0 .791.06 1.536.18 2.234s.31 1.39.57 2.078h-4.562zm-4.172-3.047c.802 0 1.516-.198 2.14-.594.626-.395 1.048-.854 1.266-1.375v-2.39h-2.546c-.97 0-1.704.242-2.204.726-.5.485-.75 1.07-.75 1.758 0 .563.188 1.016.563 1.36.375.343.885.515 1.531.515zm16.86-18v4.14h2.843v3.204h-2.844v8.61c0 .656.136 1.124.407 1.405.27.282.635.422 1.094.422.24 0 .445-.013.617-.039.172-.026.372-.07.601-.133l.39 3.297a9.156 9.156 0 0 1-1.343.352 8.098 8.098 0 0 1-1.422.117c-1.573 0-2.784-.432-3.633-1.297-.849-.864-1.273-2.234-1.273-4.11v-8.624h-2.469v-3.203h2.469v-4.14h4.563zM111.483 31a9.596 9.596 0 0 1-.43-1.219 8.478 8.478 0 0 1-.257-1.312 6.288 6.288 0 0 1-1.852 2.047c-.765.541-1.68.812-2.742.812-1.77 0-3.135-.456-4.094-1.367-.958-.912-1.437-2.154-1.437-3.727 0-1.656.638-2.94 1.914-3.851 1.276-.912 3.138-1.367 5.586-1.367h2.547v-1.344c0-.813-.214-1.443-.64-1.89-.428-.449-1.058-.673-1.891-.673-.74 0-1.31.18-1.711.54-.401.359-.602.856-.602 1.492l-4.406-.016-.016-.094c-.073-1.427.547-2.659 1.86-3.695 1.312-1.037 3.036-1.555 5.171-1.555 2.021 0 3.662.513 4.922 1.54 1.26 1.025 1.89 2.486 1.89 4.382v6.985c0 .791.06 1.536.18 2.234s.31 1.39.57 2.078h-4.562zm-76.49.839l.01-19.088-10.344-1.84v1.753H19v19.175H8.995a8.996 8.996 0 0 1-2.398-17.664 7.1 7.1 0 0 1 7.048-6.254c1.1 0 2.137.257 3.066.703C18.517 3.596 23.326 0 28.976 0c6.777 0 12.342 5.172 12.97 11.783A10.525 10.525 0 0 1 48 21.313c0 5.811-4.711 10.526-10.525 10.526h-2.48zm72.319-3.886c-.646 0-1.157-.172-1.532-.515-.375-.344-.562-.797-.562-1.36 0-.687.25-1.273.75-1.758.5-.484 1.234-.726 2.203-.726h2.547v2.39c-.219.521-.64.98-1.266 1.375-.625.396-1.338.594-2.14.594zM27.118 21c.618 0 1.119.642 1.119 1.433 0 .792-.5 1.433-1.119 1.433-.617 0-1.118-.641-1.118-1.433 0-.791.5-1.433 1.118-1.433zM20.68 31.535V14.319h3.98v17.219l-3.98-.003z"/>
    </g>
</svg>
